<svg width="640" height="180" viewBox="0 0 640 180" fill="none" xmlns="http://www.w3.org/2000/svg">
  <rect width="640" height="180" rx="42" fill="#fff9f4"/>
  <rect x="24" y="24" width="132" height="132" rx="36" fill="url(#g)"/>
  <text x="90" y="106" text-anchor="middle" font-family="Georgia, serif" font-size="58" font-weight="700" fill="#fff9f4">JC</text>
  <text x="190" y="82" font-family="Inter, Arial, sans-serif" font-size="34" font-weight="800" fill="#2d1938" letter-spacing="2">JULIE CAROLINE</text>
  <text x="192" y="120" font-family="Inter, Arial, sans-serif" font-size="18" font-weight="700" fill="#c86f78" letter-spacing="5">MARKETING STRATEGIST</text>
  <path d="M520 47C562 30 606 57 602 100C598 143 546 155 514 128C483 102 488 60 520 47Z" fill="#f5d9dc"/>
  <path d="M553 61C574 57 590 73 587 94C584 115 559 121 542 108C526 94 533 65 553 61Z" fill="#b98fc8" opacity="0.62"/>
  <defs>
    <linearGradient id="g" x1="24" y1="24" x2="156" y2="156" gradientUnits="userSpaceOnUse">
      <stop stop-color="#5f3b76"/>
      <stop offset="0.55" stop-color="#8d5c98"/>
      <stop offset="1" stop-color="#c86f78"/>
    </linearGradient>
  </defs>
</svg>
